<svg width="32" height="32" viewBox="0 0 32 32" fill="none" xmlns="http://www.w3.org/2000/svg">
<g clip-path="url(#clip0_20_97)">
<path d="M26.0387 9.45999C26.3444 8.47398 26.4425 7.43534 26.3267 6.40955C26.211 5.38377 25.8839 4.39309 25.3662 3.49999C25.2785 3.34793 25.1522 3.22167 25.0001 3.1339C24.8481 3.04613 24.6756 2.99995 24.5 2.99999C23.3352 2.99755 22.186 3.26757 21.1442 3.78847C20.1024 4.30937 19.1969 5.06671 18.5 5.99999H15.5C14.8031 5.06671 13.8976 4.30937 12.8558 3.78847C11.814 3.26757 10.6648 2.99755 9.5 2.99999C9.32443 2.99995 9.15193 3.04613 8.99987 3.1339C8.84781 3.22167 8.72154 3.34793 8.63375 3.49999C8.11606 4.39309 7.78903 5.38377 7.67329 6.40955C7.55754 7.43534 7.65559 8.47398 7.96125 9.45999C7.34341 10.5384 7.01245 11.7572 7 13V14C7.0021 15.692 7.61634 17.3261 8.72928 18.6006C9.84222 19.875 11.3787 20.7038 13.055 20.9337C12.3708 21.8093 11.9994 22.8888 12 24V25H9C8.20435 25 7.44129 24.6839 6.87868 24.1213C6.31607 23.5587 6 22.7956 6 22C6 21.3434 5.87067 20.6932 5.6194 20.0866C5.36812 19.4799 4.99983 18.9287 4.53553 18.4645C4.07124 18.0002 3.52005 17.6319 2.91342 17.3806C2.30679 17.1293 1.65661 17 1 17C0.734784 17 0.48043 17.1053 0.292893 17.2929C0.105357 17.4804 0 17.7348 0 18C0 18.2652 0.105357 18.5196 0.292893 18.7071C0.48043 18.8946 0.734784 19 1 19C1.79565 19 2.55871 19.3161 3.12132 19.8787C3.68393 20.4413 4 21.2043 4 22C4 23.3261 4.52678 24.5978 5.46447 25.5355C6.40215 26.4732 7.67392 27 9 27H12V29C12 29.2652 12.1054 29.5196 12.2929 29.7071C12.4804 29.8946 12.7348 30 13 30C13.2652 30 13.5196 29.8946 13.7071 29.7071C13.8946 29.5196 14 29.2652 14 29V24C14 23.2043 14.3161 22.4413 14.8787 21.8787C15.4413 21.3161 16.2044 21 17 21C17.7956 21 18.5587 21.3161 19.1213 21.8787C19.6839 22.4413 20 23.2043 20 24V29C20 29.2652 20.1054 29.5196 20.2929 29.7071C20.4804 29.8946 20.7348 30 21 30C21.2652 30 21.5196 29.8946 21.7071 29.7071C21.8946 29.5196 22 29.2652 22 29V24C22.0006 22.8888 21.6292 21.8093 20.945 20.9337C22.6213 20.7038 24.1578 19.875 25.2707 18.6006C26.3837 17.3261 26.9979 15.692 27 14V13C26.9875 11.7572 26.6566 10.5384 26.0387 9.45999ZM25 14C25 15.3261 24.4732 16.5978 23.5355 17.5355C22.5979 18.4732 21.3261 19 20 19H14C12.6739 19 11.4021 18.4732 10.4645 17.5355C9.52678 16.5978 9 15.3261 9 14V13C9.01226 12 9.31164 11.0246 9.8625 10.19C9.96519 10.0546 10.0317 9.89535 10.0558 9.72717C10.0798 9.55899 10.0606 9.38745 10 9.22874C9.73953 8.55698 9.61417 7.84043 9.63112 7.12015C9.64806 6.39986 9.80698 5.69 10.0988 5.03124C10.9171 5.11928 11.7052 5.39038 12.4046 5.82445C13.104 6.25852 13.6966 6.84443 14.1388 7.53874C14.2288 7.67962 14.3528 7.79566 14.4994 7.87624C14.6459 7.95682 14.8103 7.99936 14.9775 7.99999H19.0212C19.1891 7.99999 19.3543 7.95774 19.5015 7.87713C19.6487 7.79653 19.7733 7.68015 19.8638 7.53874C20.3058 6.84436 20.8985 6.25841 21.5978 5.82433C22.2972 5.39025 23.0853 5.11919 23.9037 5.03124C24.1951 5.69016 24.3536 6.40011 24.3701 7.1204C24.3866 7.84068 24.2609 8.55715 24 9.22874C23.9396 9.38593 23.9193 9.55573 23.9412 9.72272C23.963 9.88971 24.0262 10.0486 24.125 10.185C24.6813 11.0196 24.9851 11.997 25 13V14Z" fill="white"/>
</g>
<defs>
<clipPath id="clip0_20_97">
<rect width="32" height="32" fill="white"/>
</clipPath>
</defs>
</svg>
